<!DOCTYPE svg PUBLIC "-//W3C//DTD SVG 1.1//EN" "http://www.w3.org/Graphics/SVG/1.1/DTD/svg11.dtd">

<!-- Uploaded to: SVG Repo, www.svgrepo.com, Transformed by: SVG Repo Mixer Tools -->
<svg fill="#878787" height="800px" width="800px" version="1.1" id="Capa_1" xmlns="http://www.w3.org/2000/svg" xmlns:xlink="http://www.w3.org/1999/xlink" viewBox="0 0 495.907 495.907" xml:space="preserve">

<g id="SVGRepo_bgCarrier" stroke-width="0"/>

<g id="SVGRepo_tracerCarrier" stroke-linecap="round" stroke-linejoin="round"/>

<g id="SVGRepo_iconCarrier"> <g id="XMLID_513_"> <path style="fill: #878787;" id="XMLID_515_" d="M458.826,247.953l33.38-33.38c4.935-4.935,4.935-12.931,0-17.866l-23.675-23.672 c-4.934-4.936-12.931-4.936-17.866,0l-33.381,33.379l-33.378-33.379c-4.936-4.936-12.931-4.936-17.866,0l-23.673,23.672 c-4.936,4.936-4.936,12.932,0,17.866l33.38,33.38l-33.38,33.381c-4.936,4.934-4.936,12.928,0,17.881l23.673,23.658 c2.353,2.385,5.577,3.701,8.916,3.701c3.357,0,6.565-1.316,8.95-3.701l33.378-33.381l33.381,33.381 c2.371,2.385,5.577,3.701,8.948,3.701c3.343,0,6.566-1.316,8.918-3.701l23.675-23.658c4.935-4.953,4.935-12.947,0-17.881 L458.826,247.953z"/> <path id="XMLID_514_" d="M241.768,188.975v-60.439c0-6.731-3.504-12.965-9.262-16.436c-5.741-3.488-12.882-3.719-18.853-0.625 l-119.484,62.27v-18.986c0-10.629-8.606-19.232-19.232-19.232H19.231C8.606,135.526,0,144.129,0,154.758v186.408 c0,10.627,8.606,19.23,19.231,19.23h55.705c10.626,0,19.232-8.604,19.232-19.23v-19.002l119.484,62.268 c5.971,3.094,13.111,2.863,18.853-0.623c5.758-3.473,9.262-9.707,9.262-16.436v-60.459c31.522-1.365,56.707-27.111,56.707-58.961 C298.475,216.088,273.29,190.324,241.768,188.975z"/> </g> </g>

</svg>