<!DOCTYPE svg PUBLIC "-//W3C//DTD SVG 1.1//EN" "http://www.w3.org/Graphics/SVG/1.1/DTD/svg11.dtd">
<!-- Uploaded to: SVG Repo, www.svgrepo.com, Transformed by: SVG Repo Mixer Tools -->
<svg height="800px" width="800px" version="1.1" id="Capa_1" xmlns="http://www.w3.org/2000/svg" xmlns:xlink="http://www.w3.org/1999/xlink" viewBox="0 0 73.119 73.119" xml:space="preserve" fill="#f" stroke="#f">
<g id="SVGRepo_bgCarrier" stroke-width="0"/>
<g id="SVGRepo_tracerCarrier" stroke-linecap="round" stroke-linejoin="round" stroke="#CCCCCC" stroke-width="1.023666"/>
<g id="SVGRepo_iconCarrier"> <g> <g> <path style="fill:#878787;" d="M58.797,1.931L52.495,8.23c15.622,15.622,15.625,41.039,0,56.668l6.302,6.292 C77.894,52.099,77.894,21.031,58.797,1.931z"/> <path style="fill:#878787;" d="M49.349,11.375l-6.299,6.292c10.418,10.418,10.418,27.364,0.004,37.782l6.295,6.295 C63.242,47.862,63.242,25.261,49.349,11.375z"/> <path style="fill:#878787;" d="M39.911,20.824l-6.295,6.295c5.204,5.207,5.2,13.678-0.004,18.886l6.295,6.295 C48.586,43.621,48.586,29.495,39.911,20.824z"/> <path style="fill:#878787;" d="M25.449,31.191V12.986L9.029,29.402H0v14.315h9.029l16.42,16.42V41.928 c2.963,0,5.368-2.398,5.368-5.368C30.817,33.593,28.412,31.191,25.449,31.191z"/> </g> </g> </g>
</svg>